<svg width="8" height="14" viewBox="0 0 8 14" fill="none" xmlns="http://www.w3.org/2000/svg">
<path d="M2.28936 7.69471C2.10189 7.50718 1.99657 7.25288 1.99657 6.98771C1.99657 6.72255 2.10189 6.46824 2.28936 6.28071L6.87436 1.69471C7.05652 1.50611 7.15731 1.25351 7.15503 0.991311C7.15276 0.729114 7.04759 0.478302 6.86218 0.292894C6.67677 0.107485 6.42596 0.00231622 6.16376 3.78025e-05C5.90156 -0.00224062 5.64896 0.0985542 5.46036 0.280712L0.87836 4.86671C0.315947 5.42929 0 6.19222 0 6.98771C0 7.7832 0.315947 8.54613 0.87836 9.10871L5.46436 13.6947C5.65296 13.8769 5.90556 13.9777 6.16776 13.9754C6.42996 13.9731 6.68077 13.8679 6.86618 13.6825C7.05159 13.4971 7.15676 13.2463 7.15903 12.9841C7.16131 12.7219 7.06052 12.4693 6.87836 12.2807L2.28936 7.69471Z" fill="#161616"/>
</svg>
